<svg width="233" height="78" viewBox="0 0 233 78" fill="none" xmlns="http://www.w3.org/2000/svg">
<path d="M8.6438 11.9105L1.528 10.46C2.32794 7.22279 3.7046 4.82639 5.65795 3.27083C7.61131 1.71528 10.5134 0.9375 14.3643 0.9375C17.8618 0.9375 20.4663 1.41047 22.1778 2.35642C23.8893 3.28134 25.0892 4.46903 25.7775 5.91948C26.4845 7.34891 26.8379 9.98705 26.8379 13.8339L26.7542 24.1762C26.7542 27.1192 26.8751 29.2949 27.117 30.7033C27.3774 32.0907 27.8518 33.5831 28.5401 35.1807H20.7825C20.5779 34.5922 20.3267 33.7198 20.0291 32.5636C19.8989 32.0381 19.8058 31.6913 19.75 31.5231C18.4106 32.9946 16.9781 34.0982 15.4526 34.8339C13.9272 35.5696 12.2994 35.9375 10.5692 35.9375C7.51829 35.9375 5.10915 35.0021 3.34183 33.1312C1.59311 31.2603 0.71875 28.8955 0.71875 26.0366C0.71875 24.1447 1.11872 22.463 1.91867 20.9916C2.71862 19.4991 3.83482 18.3639 5.26728 17.5861C6.71835 16.7873 8.80193 16.0937 11.518 15.5051C15.1829 14.7273 17.7223 14.0021 19.1361 13.3294V12.4465C19.1361 10.7438 18.764 9.5351 18.0199 8.82038C17.2758 8.08465 15.8712 7.71678 13.8062 7.71678C12.411 7.71678 11.3227 8.03209 10.5413 8.66272C9.76 9.27234 9.12749 10.3549 8.6438 11.9105ZM19.1361 19.0997C18.1315 19.478 16.5409 19.93 14.3643 20.4555C12.1877 20.981 10.7646 21.4961 10.0949 22.0006C9.07168 22.8204 8.56008 23.8609 8.56008 25.1222C8.56008 26.3624 8.96936 27.4345 9.78791 28.3384C10.6065 29.2423 11.6482 29.6943 12.9133 29.6943C14.3271 29.6943 15.6759 29.1687 16.9595 28.1177C17.9083 27.3189 18.5315 26.3414 18.8292 25.1852C19.0338 24.4285 19.1361 22.9886 19.1361 20.8654V19.0997Z" fill="black"/>
<path d="M34.0095 1.69426H41.2369V6.26633C43.8228 2.71378 46.9017 0.9375 50.4735 0.9375C52.3711 0.9375 54.0175 1.37894 55.4127 2.26182C56.808 3.14471 57.9521 4.47954 58.8451 6.26633C60.1473 4.47954 61.5519 3.14471 63.0587 2.26182C64.5656 1.37894 66.1748 0.9375 67.8863 0.9375C70.0629 0.9375 71.9046 1.442 73.4115 2.45101C74.9184 3.439 76.0439 4.89996 76.788 6.8339C77.3275 8.26333 77.5973 10.5756 77.5973 13.7708V35.1807H69.756V16.0411C69.756 12.7198 69.4862 10.5756 68.9467 9.60867C68.2212 8.34741 67.105 7.71678 65.5981 7.71678C64.5005 7.71678 63.468 8.09516 62.5006 8.85191C61.5333 9.60867 60.8356 10.7228 60.4077 12.1943C59.9799 13.6447 59.7659 15.9465 59.7659 19.0997V35.1807H51.9246V16.8294C51.9246 13.5711 51.7851 11.469 51.506 10.5231C51.227 9.57714 50.7898 8.87294 50.1945 8.41047C49.6178 7.94801 48.8271 7.71678 47.8226 7.71678C46.6133 7.71678 45.525 8.08465 44.5577 8.82038C43.5903 9.55612 42.8927 10.6177 42.4648 12.0051C42.0555 13.3925 41.8509 15.6943 41.8509 18.9105V35.1807H34.0095V1.69426Z" fill="black"/>
<path d="M91.2987 11.9105L84.1829 10.46C84.9828 7.22279 86.3595 4.82639 88.3128 3.27083C90.2662 1.71528 93.1683 0.9375 97.0192 0.9375C100.517 0.9375 103.121 1.41047 104.833 2.35642C106.544 3.28134 107.744 4.46903 108.432 5.91948C109.139 7.34891 109.493 9.98705 109.493 13.8339L109.409 24.1762C109.409 27.1192 109.53 29.2949 109.772 30.7033C110.032 32.0907 110.507 33.5831 111.195 35.1807H103.437C103.233 34.5922 102.982 33.7198 102.684 32.5636C102.554 32.0381 102.461 31.6913 102.405 31.5231C101.065 32.9946 99.633 34.0982 98.1075 34.8339C96.5821 35.5696 94.9543 35.9375 93.2241 35.9375C90.1732 35.9375 87.764 35.0021 85.9967 33.1312C84.248 31.2603 83.3736 28.8955 83.3736 26.0366C83.3736 24.1447 83.7736 22.463 84.5736 20.9916C85.3735 19.4991 86.4897 18.3639 87.9222 17.5861C89.3732 16.7873 91.4568 16.0937 94.1729 15.5051C97.8378 14.7273 100.377 14.0021 101.791 13.3294V12.4465C101.791 10.7438 101.419 9.5351 100.675 8.82038C99.9307 8.08465 98.5261 7.71678 96.4611 7.71678C95.0659 7.71678 93.9776 8.03209 93.1962 8.66272C92.4149 9.27234 91.7824 10.3549 91.2987 11.9105ZM101.791 19.0997C100.786 19.478 99.1958 19.93 97.0192 20.4555C94.8426 20.981 93.4195 21.4961 92.7498 22.0006C91.7266 22.8204 91.215 23.8609 91.215 25.1222C91.215 26.3624 91.6243 27.4345 92.4428 28.3384C93.2613 29.2423 94.3031 29.6943 95.5682 29.6943C96.982 29.6943 98.3308 29.1687 99.6144 28.1177C100.563 27.3189 101.186 26.3414 101.484 25.1852C101.689 24.4285 101.791 22.9886 101.791 20.8654V19.0997Z" fill="black"/>
<path d="M114.097 35.1807V28.2753L125.203 13.8654C127.027 11.5111 128.375 9.8399 129.25 8.85191C128.338 8.91498 127.138 8.95702 125.65 8.97804L115.185 9.0411V1.69426H139.686V7.96903L128.357 22.7258L124.366 27.6132C126.543 27.466 127.892 27.3925 128.412 27.3925H140.551V35.1807H114.097Z" fill="black"/>
<path d="M144.011 17.9645C144.011 15.0216 144.653 12.1732 145.937 9.41948C147.221 6.66573 149.034 4.56363 151.378 3.11318C153.741 1.66273 156.373 0.9375 159.275 0.9375C163.759 0.9375 167.433 2.58765 170.298 5.88795C173.163 9.16723 174.595 13.3189 174.595 18.3429C174.595 23.409 173.144 27.6132 170.242 30.9555C167.359 34.2768 163.722 35.9375 159.331 35.9375C156.615 35.9375 154.02 35.2438 151.546 33.8564C149.09 32.469 147.221 30.4405 145.937 27.7708C144.653 25.0801 144.011 21.8114 144.011 17.9645ZM152.048 18.4375C152.048 21.7588 152.746 24.3024 154.141 26.0681C155.536 27.8339 157.257 28.7168 159.303 28.7168C161.35 28.7168 163.061 27.8339 164.438 26.0681C165.833 24.3024 166.531 21.7378 166.531 18.3744C166.531 15.0952 165.833 12.5726 164.438 10.8069C163.061 9.0411 161.35 8.15822 159.303 8.15822C157.257 8.15822 155.536 9.0411 154.141 10.8069C152.746 12.5726 152.048 15.1162 152.048 18.4375Z" fill="black"/>
<path d="M207.719 35.1807H199.877V18.0907C199.877 14.475 199.71 12.1417 199.375 11.0907C199.04 10.0186 198.491 9.18825 197.729 8.59966C196.985 8.01107 196.082 7.71678 195.022 7.71678C193.664 7.71678 192.445 8.1372 191.366 8.97804C190.287 9.81888 189.543 10.933 189.134 12.3204C188.743 13.7078 188.548 16.2723 188.548 20.0141V35.1807H180.707V1.69426H187.99V6.61318C190.576 2.82939 193.831 0.9375 197.757 0.9375C199.487 0.9375 201.068 1.29486 202.5 2.00957C203.933 2.70327 205.012 3.59666 205.737 4.68975C206.482 5.78285 206.993 7.02309 207.272 8.41047C207.57 9.79786 207.719 11.7843 207.719 14.3699V35.1807Z" fill="black"/>
<path d="M151.081 54.5055C151.533 53.2007 150.841 51.7768 149.537 51.3251L128.275 43.9635C126.97 43.5118 125.546 44.2033 125.095 45.508C124.643 46.8127 125.334 48.2366 126.639 48.6883L145.538 55.232L138.995 74.1312C138.543 75.4359 139.235 76.8598 140.539 77.3115C141.844 77.7633 143.268 77.0718 143.72 75.7671L151.081 54.5055ZM36.3656 55.7897C55.3458 68.0069 71.3027 74.2297 88.8949 74.1873C106.398 74.1451 125.182 67.8966 149.811 55.9364L147.627 51.4386C123.171 63.3151 105.224 69.1479 88.8829 69.1873C72.6308 69.2265 57.6301 63.5309 39.0719 51.5853L36.3656 55.7897Z" fill="#E78305"/>
</svg>
