<svg width="91" height="47" viewBox="0 0 91 47" fill="none" xmlns="http://www.w3.org/2000/svg">
<path d="M3.68 45.912C3.168 45.912 2.464 45.3574 1.568 44.248C0.671999 43.096 0.223999 42.008 0.223999 40.984C0.223999 39.96 1.16267 35.7787 3.04 28.44C2.48533 28.2267 1.99467 27.864 1.568 27.352C1.184 26.7974 0.991999 26.1787 0.991999 25.496C0.991999 24.9414 2.10133 24.3227 4.32 23.64C7.17867 12.4614 8.608 5.52804 8.608 2.84004C8.608 2.11471 8.69333 1.62404 8.864 1.36804C9.07733 1.06938 9.46133 0.920044 10.016 0.920044C10.6133 0.920044 11.3813 1.58138 12.32 2.90405C13.3013 4.22671 13.792 5.72004 13.792 7.38404C13.792 9.00538 12.7467 13.9334 10.656 22.168C16.288 21.016 21.8133 20.2694 27.232 19.928C29.408 11.0534 30.496 5.35738 30.496 2.84004C30.496 1.56004 30.9227 0.920044 31.776 0.920044C32.5013 0.920044 33.3547 1.58138 34.336 2.90405C35.3173 4.22671 35.808 5.61338 35.808 7.06404C35.808 8.47204 34.848 12.8027 32.928 20.056C34.8907 20.3547 35.872 20.952 35.872 21.848C35.872 22.7014 34.5493 23.4054 31.904 23.96C30.5387 28.9947 29.6 32.4934 29.088 34.456C28.6187 36.376 28.2347 37.912 27.936 39.064C27.6373 40.216 27.3173 41.368 26.976 42.52C26.3787 44.7814 25.8453 45.912 25.376 45.912C24.7787 45.912 24.0747 45.4214 23.264 44.44C22.496 43.416 22.112 42.3707 22.112 41.304C22.112 40.2374 23.392 34.7547 25.952 24.856C19.7227 25.7094 14.112 26.6907 9.12 27.8C8.52267 30.0187 7.94667 32.1734 7.392 34.264C6.88 36.312 6.47467 37.912 6.176 39.064C5.87733 40.216 5.55733 41.368 5.216 42.52C4.61867 44.7814 4.10667 45.912 3.68 45.912Z" fill="#D6001C"/>
<path d="M40.335 45.18C40.9883 45.18 41.435 45.2134 41.675 45.28C41.915 45.3467 42.035 45.4734 42.035 45.66C42.035 46.2867 41.3883 46.6 40.095 46.6C38.815 46.6 37.5483 46.02 36.295 44.86C34.1617 46.1667 32.5817 46.82 31.555 46.82C31.035 46.82 30.5217 46.5734 30.015 46.08C29.5083 45.5734 29.255 45.0467 29.255 44.5C29.255 43.94 30.4283 42.7067 32.775 40.8C32.8417 40.7334 32.895 40.6867 32.935 40.66C32.975 40.6334 33.0217 40.5934 33.075 40.54C33.1417 40.4867 33.2017 40.44 33.255 40.4C32.775 39.2267 32.535 38.14 32.535 37.14C32.535 36.1267 32.9017 35.2467 33.635 34.5C34.3683 33.7534 35.295 33.38 36.415 33.38C37.2683 33.38 37.875 33.64 38.235 34.16C38.6083 34.6667 38.795 35.2334 38.795 35.86C38.795 37.0467 37.575 38.6934 35.135 40.8C35.4817 41.5467 35.895 42.2334 36.375 42.86C36.9217 42.4867 37.635 41.98 38.515 41.34C40.235 40.1 41.1817 39.48 41.355 39.48C41.7683 39.48 41.975 39.7 41.975 40.14C41.975 40.3934 41.535 40.9067 40.655 41.68C39.775 42.4534 38.735 43.2467 37.535 44.06C38.4283 44.8067 39.3617 45.18 40.335 45.18ZM36.015 34.9C35.5217 34.9 35.1083 35.1334 34.775 35.6C34.455 36.0667 34.295 36.6267 34.295 37.28C34.295 37.92 34.395 38.5867 34.595 39.28C36.2083 37.8534 37.015 36.7667 37.015 36.02C37.015 35.7 36.9283 35.4334 36.755 35.22C36.595 35.0067 36.3483 34.9 36.015 34.9ZM31.255 44.22C31.095 44.4467 31.015 44.6334 31.015 44.78C31.015 44.9134 31.0683 45.0267 31.175 45.12C31.2817 45.2134 31.415 45.26 31.575 45.26C32.2683 45.26 33.4617 44.72 35.155 43.64C34.7417 43.1334 34.335 42.5267 33.935 41.82C32.3083 43.18 31.415 43.98 31.255 44.22Z" fill="#D6001C"/>
<path d="M51.777 2.96804C51.777 2.24271 51.8624 1.75204 52.033 1.49604C52.2464 1.19738 52.609 1.04804 53.121 1.04804C53.6757 1.04804 54.6144 1.62404 55.937 2.77604C57.2597 3.92804 57.9637 4.95204 58.049 5.84805C58.2197 7.38404 59.0304 10.1147 60.481 14.04C61.9317 17.9227 63.5957 21.8694 65.473 25.88C67.8624 23.064 70.8704 19.3307 74.497 14.68C78.1237 9.98671 80.8117 6.65871 82.561 4.69604C84.3104 2.73338 85.569 1.75204 86.337 1.75204C87.105 1.75204 87.9157 2.17871 88.769 3.03204C89.6224 3.88538 90.049 4.69604 90.049 5.46404C90.049 6.23204 89.9637 7.10671 89.793 8.08804C89.6224 9.06938 89.3237 10.3707 88.897 11.992C88.513 13.5707 88.1504 14.9574 87.809 16.152C87.5104 17.304 86.9984 19.1174 86.273 21.592C85.5477 24.0667 84.993 26.0507 84.609 27.544C84.225 28.9947 83.777 30.7867 83.265 32.92C82.753 35.0107 82.3264 36.7387 81.985 38.104C81.6864 39.4267 81.3664 40.728 81.025 42.008C80.385 44.4827 79.7664 45.72 79.169 45.72C78.6144 45.72 78.0597 45.208 77.505 44.184C76.9504 43.16 76.673 41.7947 76.673 40.088C76.673 38.3387 77.3984 34.3707 78.849 28.184C80.3424 21.9974 81.9424 16.5787 83.649 11.928C75.7984 21.7414 70.9557 27.608 69.121 29.528C67.329 31.448 65.8357 32.408 64.641 32.408C63.489 32.408 62.401 31.7467 61.377 30.424C59.841 28.2054 57.7717 22.9574 55.169 14.68C54.4437 19.16 53.633 23 52.737 26.2C51.8837 29.3574 51.3077 31.4694 51.009 32.536C50.753 33.56 50.5184 34.4134 50.305 35.096C50.1344 35.7787 49.921 36.5894 49.665 37.528C49.409 38.424 49.1744 39.1707 48.961 39.768C48.7904 40.3654 48.5984 41.0267 48.385 41.752C48.1717 42.4347 47.9797 42.9894 47.809 43.416C47.681 43.8427 47.5317 44.248 47.361 44.632C47.0197 45.3574 46.7637 45.72 46.593 45.72C46.081 45.72 45.441 45.1654 44.673 44.056C43.905 42.9467 43.521 41.88 43.521 40.856C43.521 39.832 44.8864 33.944 47.617 23.192C50.3904 12.44 51.777 5.69871 51.777 2.96804Z" fill="#D6001C"/>
</svg>
