<svg width="64" height="53" viewBox="0 0 64 53" fill="none" xmlns="http://www.w3.org/2000/svg">
<path d="M52.7688 51.08V49.2547H52.9766V49.5314C53.0297 49.4031 53.0781 49.3183 53.1219 49.277C53.1667 49.2346 53.2167 49.2134 53.2719 49.2134C53.349 49.2134 53.4276 49.2467 53.5078 49.3131L53.4297 49.6002C53.3724 49.5555 53.3167 49.5331 53.2625 49.5331C53.2135 49.5331 53.1688 49.552 53.1281 49.5898C53.0875 49.6277 53.0589 49.6804 53.0422 49.748C53.013 49.866 52.9984 49.9915 52.9984 50.1244V51.08H52.7688Z" fill="black"/>
<path d="M53 52.5C54.3807 52.5 55.5 51.3807 55.5 50C55.5 48.6193 54.3807 47.5 53 47.5C51.6193 47.5 50.5 48.6193 50.5 50C50.5 51.3807 51.6193 52.5 53 52.5Z" stroke="#EA1701"/>
<path fill-rule="evenodd" clip-rule="evenodd" d="M0 0H64L58 48C54.7859 38.8379 45 40 45 40C45 40 35.2843 38.9714 32 48C29.4715 39.0522 18 40 18 40C18 40 7.49873 39.4403 5.99037 47.923L0 0Z" fill="#B41B15"/>
<path d="M10.0986 24V13.2627H11.5195V22.7329H16.8076V24H10.0986Z" fill="black"/>
<path d="M18.5361 24V13.2627H26.2998V14.5298H19.957V17.8184H25.897V19.0781H19.957V22.7329H26.5488V24H18.5361Z" fill="black"/>
<path d="M31.5806 24L27.4204 13.2627H28.9585L31.749 21.063C31.9736 21.688 32.1616 22.2739 32.313 22.8208C32.479 22.2349 32.6719 21.6489 32.8916 21.063L35.792 13.2627H37.2422L33.0381 24H31.5806Z" fill="black"/>
<path d="M38.7583 24V13.2627H40.1792V24H38.7583Z" fill="black"/>
<path d="M42.4424 14.6836V13.1528H43.856V14.3613C43.856 15.0156 43.7803 15.4868 43.6289 15.7749C43.4189 16.1704 43.0918 16.4683 42.6475 16.6685L42.3252 16.1484C42.5889 16.041 42.7842 15.8726 42.9111 15.6431C43.043 15.4087 43.1162 15.0889 43.1309 14.6836H42.4424Z" fill="black"/>
<path d="M45.5479 20.5503L46.8882 20.4331C46.9517 20.9702 47.0981 21.4121 47.3276 21.7588C47.562 22.1006 47.9233 22.3789 48.4116 22.5938C48.8999 22.8037 49.4492 22.9087 50.0596 22.9087C50.6016 22.9087 51.0801 22.8281 51.4951 22.667C51.9102 22.5059 52.2178 22.2861 52.418 22.0078C52.623 21.7246 52.7256 21.417 52.7256 21.085C52.7256 20.748 52.6279 20.4551 52.4326 20.2061C52.2373 19.9521 51.915 19.7397 51.4658 19.5688C51.1777 19.4565 50.5405 19.2832 49.5542 19.0488C48.5679 18.8096 47.877 18.585 47.4814 18.375C46.9688 18.1064 46.5854 17.7744 46.3315 17.3789C46.0825 16.9785 45.958 16.5317 45.958 16.0386C45.958 15.4966 46.1118 14.9912 46.4194 14.5225C46.7271 14.0488 47.1763 13.6899 47.7671 13.4458C48.3579 13.2017 49.0146 13.0796 49.7373 13.0796C50.5332 13.0796 51.2339 13.209 51.8394 13.4678C52.4497 13.7217 52.9185 14.0977 53.2456 14.5957C53.5728 15.0938 53.7485 15.6577 53.7729 16.2876L52.4106 16.3901C52.3374 15.7114 52.0884 15.1987 51.6636 14.8521C51.2437 14.5054 50.6211 14.332 49.7959 14.332C48.9365 14.332 48.3091 14.4907 47.9136 14.8081C47.5229 15.1206 47.3276 15.499 47.3276 15.9434C47.3276 16.3291 47.4668 16.6465 47.7451 16.8955C48.0186 17.1445 48.7314 17.4009 49.8838 17.6646C51.041 17.9233 51.8345 18.1504 52.2642 18.3457C52.8892 18.6338 53.3506 19 53.6484 19.4443C53.9463 19.8838 54.0952 20.3916 54.0952 20.9678C54.0952 21.5391 53.9316 22.0786 53.6045 22.5864C53.2773 23.0894 52.8062 23.4824 52.1909 23.7656C51.5806 24.0439 50.8921 24.1831 50.1255 24.1831C49.1538 24.1831 48.3384 24.0415 47.6792 23.7583C47.0249 23.4751 46.5098 23.0503 46.1338 22.4839C45.7627 21.9126 45.5674 21.2681 45.5479 20.5503Z" fill="black"/>
</svg>
