<svg width="206" height="57" viewBox="0 0 206 57" fill="none" xmlns="http://www.w3.org/2000/svg">
<path d="M198.828 53.8125V49.6641H199.348V50.293C199.48 50.0013 199.602 49.8086 199.711 49.7148C199.823 49.6185 199.948 49.5703 200.086 49.5703C200.279 49.5703 200.475 49.6458 200.676 49.7969L200.48 50.4492C200.337 50.3477 200.198 50.2969 200.062 50.2969C199.94 50.2969 199.828 50.3398 199.727 50.4258C199.625 50.5117 199.553 50.6315 199.512 50.7852C199.439 51.0534 199.402 51.3385 199.402 51.6406V53.8125H198.828Z" fill="black"/>
<path d="M199.406 56.4034C202.398 56.4034 204.906 54.1883 204.906 51.358C204.906 48.5276 202.398 46.3125 199.406 46.3125C196.415 46.3125 193.906 48.5276 193.906 51.358C193.906 54.1883 196.415 56.4034 199.406 56.4034Z" stroke="black"/>
<path d="M9.4375 45.8125H0L9.59375 0H28.2188C31.5312 0 34.1458 0.395833 36.0625 1.1875C38 1.95833 39.5312 3.25 40.6562 5.0625C41.7812 6.85417 42.3438 9 42.3438 11.5C42.3438 13.8125 41.8958 16.0625 41 18.25C40.1042 20.4375 39 22.1875 37.6875 23.5C36.3958 24.8125 35 25.8125 33.5 26.5C32 27.1667 29.9792 27.6771 27.4375 28.0312C25.9583 28.2396 23.1875 28.3438 19.125 28.3438H13.0938L9.4375 45.8125ZM14.6562 20.75H17.5625C22.5417 20.75 25.8646 20.4375 27.5312 19.8125C29.1979 19.1875 30.5104 18.1875 31.4688 16.8125C32.4271 15.4375 32.9062 13.9271 32.9062 12.2812C32.9062 11.1771 32.6562 10.2708 32.1562 9.5625C31.6771 8.85417 30.9896 8.34375 30.0938 8.03125C29.2188 7.69792 27.25 7.53125 24.1875 7.53125H17.4375L14.6562 20.75Z" fill="black"/>
<path d="M52.3125 0H61.7188L55.25 31C55.1667 31.5208 55.125 32.0104 55.125 32.4688C55.125 34.2812 55.7812 35.7812 57.0938 36.9688C58.4271 38.1354 60.3542 38.7188 62.875 38.7188C65.1458 38.7188 67.0208 38.2917 68.5 37.4375C69.9792 36.5833 71.125 35.3125 71.9375 33.625C72.75 31.9375 73.5729 29.0729 74.4062 25.0312L79.6562 0H89.0625L83.8438 25.0625C82.7396 30.3333 81.4688 34.3646 80.0312 37.1562C78.5938 39.9479 76.4167 42.2188 73.5 43.9688C70.5833 45.7188 66.8958 46.5938 62.4375 46.5938C57.1042 46.5938 53.0208 45.2917 50.1875 42.6875C47.3542 40.0625 45.9375 36.6979 45.9375 32.5938C45.9375 31.7396 46.0104 30.8125 46.1562 29.8125C46.2396 29.1458 46.6042 27.25 47.25 24.125L52.3125 0Z" fill="black"/>
<path d="M115.312 45.8125H106.375L104.719 7.53125L97.4375 45.8125H88.9375L98.5 0H111.938L113.344 32.0938L128.969 0H142.562L132.969 45.8125H124.375L133.406 7.8125L115.312 45.8125Z" fill="black"/>
<path d="M172.281 35.6875H154.125L148.625 45.8125H138.938L164.844 0H175.312L182.75 45.8125H173.812L172.281 35.6875ZM171.125 28.0625L168.469 9.625L157.406 28.0625H171.125Z" fill="black"/>
</svg>
