<svg width="143" height="46" viewBox="0 0 143 46" fill="none" xmlns="http://www.w3.org/2000/svg">
<path d="M0.867188 28.0391L6.21094 27.0078C6.67969 28.4141 7.27344 29.3984 7.99219 29.9609C8.71094 30.5078 9.66406 30.7812 10.8516 30.7812C11.9922 30.7812 12.9141 30.5078 13.6172 29.9609C14.3203 29.4141 14.6719 28.7734 14.6719 28.0391C14.6719 27.5391 14.5234 27.1172 14.2266 26.7734C13.9141 26.4453 13.1641 26.0469 11.9766 25.5781C8.67969 24.25 6.63281 23.2031 5.83594 22.4375C4.57031 21.2031 3.9375 19.5938 3.9375 17.6094C3.9375 15.2656 4.76562 13.3359 6.42188 11.8203C8.07812 10.3047 10.3438 9.54688 13.2188 9.54688C18.0938 9.54688 20.9219 11.7109 21.7031 16.0391L16.6172 17.1172C16.0234 15.1484 14.6016 14.1641 12.3516 14.1641C11.2891 14.1641 10.4844 14.3828 9.9375 14.8203C9.39062 15.2578 9.11719 15.8125 9.11719 16.4844C9.11719 17.0469 9.32812 17.5234 9.75 17.9141C10.0625 18.2109 11.1406 18.6875 12.9844 19.3438C15.625 20.2812 17.3984 21.1953 18.3047 22.0859C19.6328 23.3828 20.2969 24.9609 20.2969 26.8203C20.2969 29.3359 19.4453 31.4219 17.7422 33.0781C16.0391 34.7344 13.7812 35.5625 10.9688 35.5625C5.4375 35.5625 2.07031 33.0547 0.867188 28.0391Z" fill="black"/>
<path d="M29.0391 35H23.5312L29.4141 0.640625H34.9453L32.8359 12.875C34.1484 11.625 35.3438 10.7578 36.4219 10.2734C37.5 9.78906 38.6172 9.54688 39.7734 9.54688C41.3828 9.54688 42.6797 10.1094 43.6641 11.2344C44.6484 12.3594 45.1406 13.9062 45.1406 15.875C45.1406 16.8594 44.9609 18.3828 44.6016 20.4453L42.0938 35H36.5859L39.1406 20.1641C39.4062 18.5547 39.5391 17.5234 39.5391 17.0703C39.5391 16.2109 39.3203 15.5391 38.8828 15.0547C38.4453 14.5703 37.875 14.3281 37.1719 14.3281C36.25 14.3281 35.375 14.7109 34.5469 15.4766C33.4062 16.5234 32.5547 17.8125 31.9922 19.3438C31.6797 20.1719 31.2656 22.1016 30.75 25.1328L29.0391 35Z" fill="black"/>
<path d="M48.3281 24.6641C48.3281 20.5859 49.25 17.1172 51.0938 14.2578C53.1406 11.1172 56.1016 9.54688 59.9766 9.54688C62.8828 9.54688 65.1953 10.5312 66.9141 12.5C68.6484 14.4688 69.5156 17.2109 69.5156 20.7266C69.5156 24.8516 68.4375 28.3594 66.2812 31.25C64.1406 34.125 61.3359 35.5625 57.8672 35.5625C55.0391 35.5625 52.7422 34.5859 50.9766 32.6328C49.2109 30.6797 48.3281 28.0234 48.3281 24.6641ZM64.0547 19.8594C64.0547 18.2188 63.6641 16.9297 62.8828 15.9922C62.1172 15.0547 61.1406 14.5859 59.9531 14.5859C58.9531 14.5859 58.0156 14.9297 57.1406 15.6172C56.2656 16.3047 55.5 17.5 54.8438 19.2031C54.1875 20.9062 53.8594 22.6719 53.8594 24.5C53.8594 26.3594 54.2578 27.8047 55.0547 28.8359C55.8672 29.8672 56.8672 30.3828 58.0547 30.3828C59.5547 30.3828 60.8281 29.5859 61.875 27.9922C63.3281 25.8047 64.0547 23.0938 64.0547 19.8594Z" fill="black"/>
<path d="M75.6562 10.1094H80.8828L80.4375 12.6641C81.6094 11.4922 82.6797 10.6797 83.6484 10.2266C84.6172 9.77344 85.6328 9.54688 86.6953 9.54688C88.8203 9.54688 90.5391 10.4375 91.8516 12.2188C93.1641 14 93.8203 16.6797 93.8203 20.2578C93.8203 24.8203 92.6641 28.6484 90.3516 31.7422C88.4453 34.2891 86.2031 35.5625 83.625 35.5625C80.9375 35.5625 78.8984 34.2344 77.5078 31.5781L75.2812 44.4922H69.7734L75.6562 10.1094ZM78.9844 24.3828C78.9844 26.3359 79.375 27.8438 80.1562 28.9062C80.9375 29.9688 81.8438 30.5 82.875 30.5C83.7031 30.5 84.5156 30.1641 85.3125 29.4922C86.1094 28.8047 86.8281 27.5469 87.4688 25.7188C88.125 23.8906 88.4531 22.0078 88.4531 20.0703C88.4531 18.2109 88.0781 16.7891 87.3281 15.8047C86.5938 14.8203 85.6797 14.3281 84.5859 14.3281C83.7266 14.3281 82.8906 14.6641 82.0781 15.3359C81.2812 16.0078 80.5625 17.2188 79.9219 18.9688C79.2969 20.7188 78.9844 22.5234 78.9844 24.3828Z" fill="black"/>
<path d="M101.508 0.640625H107.039L105.984 6.73438H100.477L101.508 0.640625ZM99.8906 10.1094H105.398L101.133 35H95.625L99.8906 10.1094Z" fill="black"/>
<path d="M120.797 10.1094L119.953 15.0312H116.062L112.617 35H107.109L110.531 15.0312H107.461L108.305 10.1094H111.375L111.82 7.55469C112.211 5.24219 112.633 3.65625 113.086 2.79688C113.555 1.92188 114.219 1.25 115.078 0.78125C115.938 0.296875 116.961 0.0546875 118.148 0.0546875C119.852 0.0546875 121.641 0.429688 123.516 1.17969L122.461 5.98438C121.133 5.4375 120.055 5.16406 119.227 5.16406C118.695 5.16406 118.266 5.35938 117.938 5.75C117.688 6.04688 117.438 6.91406 117.188 8.35156L116.883 10.1094H120.797Z" fill="black"/>
<path d="M121.43 10.1094H126.914L128.297 22.5078C128.641 25.6797 128.836 27.9141 128.883 29.2109C129.602 26.6484 130.586 23.9609 131.836 21.1484L136.734 10.1094H142.57L129.961 37.4375C128.773 40 127.859 41.7109 127.219 42.5703C126.578 43.4453 125.852 44.0859 125.039 44.4922C124.242 44.8984 123.336 45.1016 122.32 45.1016C121.164 45.1016 119.852 44.8516 118.383 44.3516L118.875 39.3359C119.531 39.5703 120.172 39.6875 120.797 39.6875C122.484 39.6875 123.883 38.125 124.992 35L121.43 10.1094Z" fill="black"/>
</svg>
