<svg width="472" height="55" viewBox="0 0 472 55" fill="none" xmlns="http://www.w3.org/2000/svg">
<path d="M11.3203 44V13.6953H0V9.64062H27.2344V13.6953H15.8672V44H11.3203Z" fill="black"/>
<path d="M29.6484 27.2656C29.6484 21.5625 31.1797 17.1016 34.2422 13.8828C37.3047 10.6484 41.2578 9.03125 46.1016 9.03125C49.2734 9.03125 52.1328 9.78906 54.6797 11.3047C57.2266 12.8203 59.1641 14.9375 60.4922 17.6562C61.8359 20.3594 62.5078 23.4297 62.5078 26.8672C62.5078 30.3516 61.8047 33.4688 60.3984 36.2188C58.9922 38.9688 57 41.0547 54.4219 42.4766C51.8438 43.8828 49.0625 44.5859 46.0781 44.5859C42.8438 44.5859 39.9531 43.8047 37.4062 42.2422C34.8594 40.6797 32.9297 38.5469 31.6172 35.8438C30.3047 33.1406 29.6484 30.2812 29.6484 27.2656ZM34.3359 27.3359C34.3359 31.4766 35.4453 34.7422 37.6641 37.1328C39.8984 39.5078 42.6953 40.6953 46.0547 40.6953C49.4766 40.6953 52.2891 39.4922 54.4922 37.0859C56.7109 34.6797 57.8203 31.2656 57.8203 26.8438C57.8203 24.0469 57.3438 21.6094 56.3906 19.5312C55.4531 17.4375 54.0703 15.8203 52.2422 14.6797C50.4297 13.5234 48.3906 12.9453 46.125 12.9453C42.9062 12.9453 40.1328 14.0547 37.8047 16.2734C35.4922 18.4766 34.3359 22.1641 34.3359 27.3359Z" fill="black"/>
<path d="M68.25 44V9.64062H75.0938L83.2266 33.9688C83.9766 36.2344 84.5234 37.9297 84.8672 39.0547C85.2578 37.8047 85.8672 35.9688 86.6953 33.5469L94.9219 9.64062H101.039V44H96.6562V15.2422L86.6719 44H82.5703L72.6328 14.75V44H68.25Z" fill="black"/>
<path d="M108.234 44V9.64062H115.078L123.211 33.9688C123.961 36.2344 124.508 37.9297 124.852 39.0547C125.242 37.8047 125.852 35.9688 126.68 33.5469L134.906 9.64062H141.023V44H136.641V15.2422L126.656 44H122.555L112.617 14.75V44H108.234Z" fill="black"/>
<path d="M158.039 44V29.4453L144.797 9.64062H150.328L157.102 20C158.352 21.9375 159.516 23.875 160.594 25.8125C161.625 24.0156 162.875 21.9922 164.344 19.7422L171 9.64062H176.297L162.586 29.4453V44H158.039Z" fill="black"/>
<g clip-path="url(#clip0_123_27)">
<path fill-rule="evenodd" clip-rule="evenodd" d="M185.875 0H240.875V55H185.875V0Z" fill="white"/>
<path fill-rule="evenodd" clip-rule="evenodd" d="M240.062 44.9947V36.3368H186.684V44.9947H240.062Z" fill="#001C4E"/>
<path fill-rule="evenodd" clip-rule="evenodd" d="M193.558 42.5143H193.275V40.7901H190.847V42.5143H190.564V38.874H190.847V40.5555H193.275V38.874H193.558V42.5143ZM198.336 42.5143H198.053V38.874H198.336V42.5143ZM203.108 42.2792H204.907V42.5143H202.825V38.874H203.108V42.2792ZM210.853 39.1086H209.262V40.4913H210.698V40.7259H209.262V42.5143H208.979V38.874H210.853V39.1086ZM215.257 42.5143H214.973V38.874H215.257V42.5143ZM222.794 39.4558C222.351 39.205 221.939 39.0875 221.502 39.0875C220.579 39.0875 219.895 39.7709 219.895 40.6942C219.895 41.5105 220.434 42.3009 221.582 42.3009C222.004 42.3009 222.292 42.2207 222.58 42.0769V41.0945H221.811V40.86H222.863V42.2533C222.43 42.4613 221.993 42.5626 221.571 42.5626C220.44 42.5626 219.591 41.7622 219.591 40.6839C219.591 39.6162 220.419 38.8264 221.545 38.8264C221.956 38.8264 222.281 38.906 222.794 39.1357V39.4558H222.794ZM229.231 39.1086H227.528V40.5661H229.188V40.8006H227.528V42.2792H229.274V42.5143H227.245V38.874H229.231V39.1086ZM233.794 39.1086H234.387C235.054 39.1086 235.348 39.4079 235.348 39.8185C235.348 40.2565 235.038 40.5341 234.397 40.5341H233.794V39.1086ZM233.512 38.874V42.5143H233.794V40.769H234.285C234.723 40.769 234.862 40.8274 235.3 41.5162L235.935 42.5143H236.266L235.444 41.2549C235.273 40.9987 235.129 40.7901 234.958 40.6999C235.423 40.5287 235.652 40.2351 235.652 39.8139C235.652 39.328 235.337 38.8743 234.446 38.8743L233.512 38.874ZM186.72 18.6632V36.3368H213.25V18.6632H186.72Z" fill="white"/>
<path fill-rule="evenodd" clip-rule="evenodd" d="M213.25 36.3368H240.062V38.0169H240.066V18.6632H213.25V36.3368Z" fill="#B81D37"/>
<path fill-rule="evenodd" clip-rule="evenodd" d="M240.066 18.6632V10.0052H186.688V18.6632H240.066Z" fill="#001C4E"/>
<path fill-rule="evenodd" clip-rule="evenodd" d="M193.538 12.9386H192.171V16.344H191.888V12.9386H190.522V12.7035H193.538V12.9386ZM203.813 14.5236C203.813 15.431 203.109 16.1303 202.196 16.1303C201.283 16.1303 200.568 15.431 200.568 14.5236C200.568 13.6162 201.283 12.9172 202.196 12.9172C203.109 12.9172 203.813 13.6162 203.813 14.5236ZM204.118 14.5236C204.118 13.4773 203.269 12.6555 202.186 12.6555C201.107 12.6555 200.264 13.4776 200.264 14.5236C200.264 15.5696 201.107 16.3917 202.186 16.3917C203.269 16.392 204.118 15.5699 204.118 14.5236ZM214.687 12.7035H214.97V16.344H214.687V13.1143H214.676L213.299 14.8172L211.922 13.1143H211.911V16.344H211.628V12.7035H211.911L213.299 14.3958L214.687 12.7035ZM225.687 12.7035H225.971V16.344H225.687V13.1143H225.677L224.3 14.8172L222.923 13.1143H222.912V16.344H222.629V12.7035H222.912L224.3 14.3958L225.687 12.7035ZM234.917 14.3904V16.344H234.634V14.3904L233.219 12.7035H233.561L234.778 14.1447L235.99 12.7035H236.331L234.917 14.3904Z" fill="white"/>
</g>
<path d="M254.719 44V9.64062H259.266V23.75H277.125V9.64062H281.672V44H277.125V27.8047H259.266V44H254.719Z" fill="black"/>
<path d="M290.039 44V9.64062H294.586V44H290.039Z" fill="black"/>
<path d="M302.438 44V9.64062H306.984V39.9453H323.906V44H302.438Z" fill="black"/>
<path d="M329.578 44V9.64062H352.758V13.6953H334.125V24.3359H350.25V28.3906H334.125V44H329.578Z" fill="black"/>
<path d="M359.461 44V9.64062H364.008V44H359.461Z" fill="black"/>
<path d="M388.125 30.5234V26.4922L402.68 26.4688V39.2188C400.445 41 398.141 42.3438 395.766 43.25C393.391 44.1406 390.953 44.5859 388.453 44.5859C385.078 44.5859 382.008 43.8672 379.242 42.4297C376.492 40.9766 374.414 38.8828 373.008 36.1484C371.602 33.4141 370.898 30.3594 370.898 26.9844C370.898 23.6406 371.594 20.5234 372.984 17.6328C374.391 14.7266 376.406 12.5703 379.031 11.1641C381.656 9.75781 384.68 9.05469 388.102 9.05469C390.586 9.05469 392.828 9.46094 394.828 10.2734C396.844 11.0703 398.422 12.1875 399.562 13.625C400.703 15.0625 401.57 16.9375 402.164 19.25L398.062 20.375C397.547 18.625 396.906 17.25 396.141 16.25C395.375 15.25 394.281 14.4531 392.859 13.8594C391.438 13.25 389.859 12.9453 388.125 12.9453C386.047 12.9453 384.25 13.2656 382.734 13.9062C381.219 14.5312 379.992 15.3594 379.055 16.3906C378.133 17.4219 377.414 18.5547 376.898 19.7891C376.023 21.9141 375.586 24.2188 375.586 26.7031C375.586 29.7656 376.109 32.3281 377.156 34.3906C378.219 36.4531 379.758 37.9844 381.773 38.9844C383.789 39.9844 385.93 40.4844 388.195 40.4844C390.164 40.4844 392.086 40.1094 393.961 39.3594C395.836 38.5938 397.258 37.7812 398.227 36.9219V30.5234H388.125Z" fill="black"/>
<path d="M409.5 44V9.64062H434.344V13.6953H414.047V24.2188H433.055V28.25H414.047V39.9453H435.141V44H409.5Z" fill="black"/>
<path d="M441.492 44V9.64062H456.727C459.789 9.64062 462.117 9.95312 463.711 10.5781C465.305 11.1875 466.578 12.2734 467.531 13.8359C468.484 15.3984 468.961 17.125 468.961 19.0156C468.961 21.4531 468.172 23.5078 466.594 25.1797C465.016 26.8516 462.578 27.9141 459.281 28.3672C460.484 28.9453 461.398 29.5156 462.023 30.0781C463.352 31.2969 464.609 32.8203 465.797 34.6484L471.773 44H466.055L461.508 36.8516C460.18 34.7891 459.086 33.2109 458.227 32.1172C457.367 31.0234 456.594 30.2578 455.906 29.8203C455.234 29.3828 454.547 29.0781 453.844 28.9062C453.328 28.7969 452.484 28.7422 451.312 28.7422H446.039V44H441.492ZM446.039 24.8047H455.812C457.891 24.8047 459.516 24.5938 460.688 24.1719C461.859 23.7344 462.75 23.0469 463.359 22.1094C463.969 21.1562 464.273 20.125 464.273 19.0156C464.273 17.3906 463.68 16.0547 462.492 15.0078C461.32 13.9609 459.461 13.4375 456.914 13.4375H446.039V24.8047Z" fill="black"/>
<defs>
<clipPath id="clip0_123_27">
<rect width="55" height="55" fill="white" transform="translate(185.875)"/>
</clipPath>
</defs>
</svg>
