<svg width="52" height="53" viewBox="0 0 52 53" fill="none" xmlns="http://www.w3.org/2000/svg">
<rect y="0.0800781" width="52" height="52" rx="15" fill="#EBD96B"/>
<path d="M20.875 34.0801H17.4766V21.4004H20.875V34.0801ZM17.2773 18.1191C17.2773 17.6113 17.4453 17.1934 17.7812 16.8652C18.125 16.5371 18.5898 16.373 19.1758 16.373C19.7539 16.373 20.2148 16.5371 20.5586 16.8652C20.9023 17.1934 21.0742 17.6113 21.0742 18.1191C21.0742 18.6348 20.8984 19.0566 20.5469 19.3848C20.2031 19.7129 19.7461 19.877 19.1758 19.877C18.6055 19.877 18.1445 19.7129 17.793 19.3848C17.4492 19.0566 17.2773 18.6348 17.2773 18.1191ZM27.273 21.4004L27.3784 22.8652C28.2847 21.7324 29.4995 21.166 31.023 21.166C32.3667 21.166 33.3667 21.5605 34.023 22.3496C34.6792 23.1387 35.0152 24.3184 35.0308 25.8887V34.0801H31.6441V25.9707C31.6441 25.252 31.4878 24.7324 31.1753 24.4121C30.8628 24.084 30.3433 23.9199 29.6167 23.9199C28.6636 23.9199 27.9488 24.3262 27.4722 25.1387V34.0801H24.0855V21.4004H27.273Z" fill="black"/>
</svg>
