<svg width="181" height="74" viewBox="0 0 181 74" fill="none" xmlns="http://www.w3.org/2000/svg">
<path d="M5.59375 41.0312C5.59375 38.3229 6 35.4688 6.8125 32.4688C7.875 28.4479 9.48958 24.9583 11.6562 22C13.8438 19.0417 16.5938 16.7083 19.9062 15C23.2188 13.2708 26.9896 12.4062 31.2188 12.4062C36.8854 12.4062 41.4583 14.1667 44.9375 17.6875C48.4375 21.2083 50.1875 25.875 50.1875 31.6875C50.1875 36.5208 49.0521 41.1979 46.7812 45.7188C44.5104 50.2396 41.4271 53.7188 37.5312 56.1562C33.6354 58.5938 29.2292 59.8125 24.3125 59.8125C20.0417 59.8125 16.4583 58.8438 13.5625 56.9062C10.6667 54.9688 8.61458 52.5729 7.40625 49.7188C6.19792 46.8438 5.59375 43.9479 5.59375 41.0312ZM14.9062 40.8438C14.9062 43.9896 15.8646 46.625 17.7812 48.75C19.6979 50.875 22.2188 51.9375 25.3438 51.9375C27.8854 51.9375 30.3229 51.1042 32.6562 49.4375C35.0104 47.75 36.9479 45.2083 38.4688 41.8125C40.0104 38.3958 40.7812 35.0729 40.7812 31.8438C40.7812 28.2396 39.8125 25.4167 37.875 23.375C35.9375 21.3125 33.4688 20.2812 30.4688 20.2812C25.8646 20.2812 22.1146 22.4271 19.2188 26.7188C16.3438 31.0104 14.9062 35.7188 14.9062 40.8438Z" fill="black"/>
<path d="M48.535 59L58.1287 13.1875H73.785C77.1808 13.1875 79.5558 13.2917 80.91 13.5C83.16 13.8125 85.0663 14.4375 86.6288 15.375C88.1913 16.3125 89.3788 17.5625 90.1913 19.125C91.0038 20.6875 91.41 22.4167 91.41 24.3125C91.41 26.8542 90.7017 29.0625 89.285 30.9375C87.8683 32.7917 85.6808 34.1979 82.7225 35.1562C85.0767 35.8021 86.91 36.9583 88.2225 38.625C89.5558 40.2708 90.2225 42.1354 90.2225 44.2188C90.2225 46.9688 89.4413 49.5833 87.8788 52.0625C86.3163 54.5208 84.16 56.2917 81.41 57.375C78.66 58.4583 74.8996 59 70.1288 59H48.535ZM63.66 31.6875H70.8475C74.0767 31.6875 76.3996 31.4583 77.8163 31C79.2329 30.5417 80.2954 29.7917 81.0038 28.75C81.7121 27.7083 82.0663 26.5938 82.0663 25.4062C82.0663 24.2396 81.7329 23.2812 81.0663 22.5312C80.3996 21.7812 79.4517 21.2812 78.2225 21.0312C77.535 20.9062 75.8788 20.8438 73.2538 20.8438H65.9412L63.66 31.6875ZM59.5037 51.625H68.5975C72.41 51.625 74.9621 51.3854 76.2538 50.9062C77.5663 50.4062 78.6079 49.5938 79.3788 48.4688C80.1704 47.3438 80.5663 46.1562 80.5663 44.9062C80.5663 43.3854 80.0038 42.1354 78.8788 41.1562C77.7538 40.1562 75.8788 39.6562 73.2538 39.6562H62.0037L59.5037 51.625Z" fill="black"/>
<path d="M91.0075 59L100.57 13.1875H134.539L132.945 20.8438H108.414L106.226 31.25H129.945L128.351 38.9062H104.632L101.757 51.3438H128.414L126.789 59H91.0075Z" fill="black"/>
<path d="M152.886 59H143.48L147.199 41.1562L134.574 13.1875H144.605L150.293 26.125C151.647 29.2292 152.553 31.4688 153.011 32.8438C153.782 31.4896 154.678 30.0521 155.699 28.5312L160.043 22.4688L166.511 13.1875H177.449L156.449 42.0312L152.886 59Z" fill="black"/>
<path d="M174.422 61V56.8516H174.941V57.4805C175.074 57.1888 175.195 56.9961 175.305 56.9023C175.417 56.806 175.542 56.7578 175.68 56.7578C175.872 56.7578 176.069 56.8333 176.27 56.9844L176.074 57.6367C175.931 57.5352 175.792 57.4844 175.656 57.4844C175.534 57.4844 175.422 57.5273 175.32 57.6133C175.219 57.6992 175.147 57.819 175.105 57.9727C175.033 58.2409 174.996 58.526 174.996 58.8281V61H174.422Z" fill="black"/>
<path d="M175 63.5909C177.992 63.5909 180.5 61.3758 180.5 58.5455C180.5 55.7151 177.992 53.5 175 53.5C172.008 53.5 169.5 55.7151 169.5 58.5455C169.5 61.3758 172.008 63.5909 175 63.5909Z" stroke="black"/>
</svg>
