<svg width="188" height="30" viewBox="0 0 188 30" fill="none" xmlns="http://www.w3.org/2000/svg">
<path d="M20 0.480001V7.52H8.88V11.44H16.88V18.12H8.88V28.8H0V0.480001H20Z" fill="white"/>
<path d="M42.3678 24.52H32.9278L31.5278 28.8H22.2078L32.5678 0.480001H42.8078L53.1278 28.8H43.7678L42.3678 24.52ZM40.2078 17.84L37.6478 9.96L35.0878 17.84H40.2078Z" fill="white"/>
<path d="M67.4253 29.08C64.0386 29.08 61.2386 28.2933 59.0253 26.72C56.8386 25.12 55.652 22.7867 55.4653 19.72H64.9053C65.0386 21.3467 65.7586 22.16 67.0653 22.16C67.5453 22.16 67.9453 22.0533 68.2653 21.84C68.612 21.6 68.7853 21.24 68.7853 20.76C68.7853 20.0933 68.4253 19.56 67.7053 19.16C66.9853 18.7333 65.8653 18.2533 64.3453 17.72C62.532 17.08 61.0253 16.4533 59.8253 15.84C58.652 15.2267 57.6386 14.3333 56.7853 13.16C55.932 11.9867 55.5186 10.48 55.5453 8.64C55.5453 6.8 56.012 5.24 56.9453 3.96C57.9053 2.65333 59.1986 1.66667 60.8253 0.999999C62.4786 0.333333 64.332 0 66.3853 0C69.852 0 72.5986 0.8 74.6253 2.4C76.6786 4 77.7586 6.25333 77.8653 9.16H68.3053C68.2786 8.36 68.0786 7.78667 67.7053 7.44C67.332 7.09333 66.8786 6.92 66.3453 6.92C65.972 6.92 65.6653 7.05333 65.4253 7.32C65.1853 7.56 65.0653 7.90667 65.0653 8.36C65.0653 9 65.412 9.53333 66.1053 9.96C66.8253 10.36 67.9587 10.8533 69.5053 11.44C71.292 12.1067 72.7586 12.7467 73.9053 13.36C75.0786 13.9733 76.092 14.8267 76.9453 15.92C77.7986 17.0133 78.2253 18.3867 78.2253 20.04C78.2253 21.7733 77.7986 23.3333 76.9453 24.72C76.092 26.08 74.852 27.1467 73.2253 27.92C71.5987 28.6933 69.6653 29.08 67.4253 29.08Z" fill="white"/>
<path d="M108.745 0.480001V28.8H99.8653V17.76H91.4253V28.8H82.5453V0.480001H91.4253V10.68H99.8653V0.480001H108.745Z" fill="white"/>
<path d="M122.821 0.480001V28.8H113.941V0.480001H122.821Z" fill="white"/>
<path d="M141.831 29.08C139.165 29.08 136.711 28.4533 134.471 27.2C132.258 25.9467 130.498 24.2133 129.191 22C127.885 19.7867 127.231 17.2933 127.231 14.52C127.231 11.7467 127.885 9.25333 129.191 7.04C130.498 4.82667 132.258 3.10667 134.471 1.88C136.711 0.626667 139.165 0 141.831 0C144.498 0 146.938 0.626667 149.151 1.88C151.365 3.10667 153.111 4.82667 154.391 7.04C155.698 9.25333 156.351 11.7467 156.351 14.52C156.351 17.2933 155.698 19.7867 154.391 22C153.111 24.2133 151.351 25.9467 149.111 27.2C146.898 28.4533 144.471 29.08 141.831 29.08ZM141.831 20.8C143.591 20.8 144.951 20.24 145.911 19.12C146.871 17.9733 147.351 16.44 147.351 14.52C147.351 12.5733 146.871 11.04 145.911 9.92C144.951 8.77333 143.591 8.2 141.831 8.2C140.045 8.2 138.671 8.77333 137.711 9.92C136.751 11.04 136.271 12.5733 136.271 14.52C136.271 16.44 136.751 17.9733 137.711 19.12C138.671 20.24 140.045 20.8 141.831 20.8Z" fill="white"/>
<path d="M187.915 28.8H179.035L169.635 14.56V28.8H160.755V0.480001H169.635L179.035 14.96V0.480001H187.915V28.8Z" fill="white"/>
</svg>
