<svg width="52" height="53" viewBox="0 0 52 53" fill="none" xmlns="http://www.w3.org/2000/svg">
<rect y="0.0800781" width="52" height="52" rx="15" fill="#EBD96B"/>
<path d="M25.946 20.4109C22.8406 20.4109 20.3357 22.9158 20.3357 26.0212C20.3357 29.1267 22.8406 31.6316 25.946 31.6316C29.0515 31.6316 31.5564 29.1267 31.5564 26.0212C31.5564 22.9158 29.0515 20.4109 25.946 20.4109ZM25.946 29.6687C23.9392 29.6687 22.2986 28.033 22.2986 26.0212C22.2986 24.0095 23.9343 22.3738 25.946 22.3738C27.9578 22.3738 29.5935 24.0095 29.5935 26.0212C29.5935 28.033 27.9529 29.6687 25.946 29.6687ZM33.0945 20.1814C33.0945 20.9089 32.5085 21.49 31.7859 21.49C31.0584 21.49 30.4773 20.9041 30.4773 20.1814C30.4773 19.4587 31.0632 18.8728 31.7859 18.8728C32.5085 18.8728 33.0945 19.4587 33.0945 20.1814ZM36.8103 21.5095C36.7273 19.7566 36.3269 18.2039 35.0427 16.9246C33.7634 15.6453 32.2107 15.2449 30.4578 15.157C28.6511 15.0544 23.2361 15.0544 21.4294 15.157C19.6814 15.24 18.1287 15.6404 16.8445 16.9197C15.5603 18.199 15.1648 19.7517 15.0769 21.5046C14.9744 23.3113 14.9744 28.7263 15.0769 30.533C15.1599 32.2859 15.5603 33.8386 16.8445 35.1179C18.1287 36.3972 19.6765 36.7976 21.4294 36.8855C23.2361 36.988 28.6511 36.988 30.4578 36.8855C32.2107 36.8025 33.7634 36.4021 35.0427 35.1179C36.322 33.8386 36.7224 32.2859 36.8103 30.533C36.9128 28.7263 36.9128 23.3162 36.8103 21.5095ZM34.4763 32.4714C34.0955 33.4285 33.3582 34.1658 32.3962 34.5515C30.9558 35.1228 27.5378 34.991 25.946 34.991C24.3542 34.991 20.9314 35.1179 19.4958 34.5515C18.5388 34.1707 17.8015 33.4333 17.4158 32.4714C16.8445 31.031 16.9763 27.613 16.9763 26.0212C16.9763 24.4294 16.8494 21.0066 17.4158 19.571C17.7966 18.614 18.5339 17.8767 19.4958 17.491C20.9363 16.9197 24.3542 17.0515 25.946 17.0515C27.5378 17.0515 30.9607 16.9246 32.3962 17.491C33.3533 17.8718 34.0906 18.6091 34.4763 19.571C35.0476 21.0115 34.9158 24.4294 34.9158 26.0212C34.9158 27.613 35.0476 31.0359 34.4763 32.4714Z" fill="black"/>
</svg>
