<svg width="52" height="53" viewBox="0 0 52 53" fill="none" xmlns="http://www.w3.org/2000/svg">
<rect y="0.0800781" width="52" height="52" rx="15" fill="#EBD96B"/>
<path d="M38.4302 21.1403C38.446 21.3624 38.446 21.5845 38.446 21.8066C38.446 28.58 33.2906 36.3846 23.868 36.3846C20.9651 36.3846 18.2684 35.5438 16 34.0845C16.4125 34.1321 16.809 34.1479 17.2373 34.1479C19.6326 34.1479 21.8375 33.339 23.5983 31.9589C21.3458 31.9113 19.4581 30.436 18.8077 28.4056C19.125 28.4531 19.4422 28.4849 19.7754 28.4849C20.2354 28.4849 20.6955 28.4214 21.1237 28.3104C18.776 27.8345 17.0152 25.7723 17.0152 23.2818V23.2184C17.6973 23.5991 18.4905 23.8371 19.3312 23.8687C17.9511 22.9487 17.0469 21.3783 17.0469 19.6016C17.0469 18.6499 17.3007 17.7774 17.7449 17.016C20.2671 20.1251 24.0583 22.1555 28.3096 22.3776C28.2303 21.9969 28.1827 21.6004 28.1827 21.2038C28.1827 18.3802 30.4669 16.0801 33.3064 16.0801C34.7816 16.0801 36.1141 16.6987 37.05 17.6981C38.208 17.476 39.3184 17.0477 40.302 16.4608C39.9212 17.6505 39.1122 18.6499 38.0494 19.2844C39.0805 19.1734 40.0799 18.8878 40.9999 18.4913C40.302 19.5064 39.4295 20.4106 38.4302 21.1403Z" fill="black"/>
</svg>
